<svg width="111" height="35" viewBox="0 0 111 35" fill="none" xmlns="http://www.w3.org/2000/svg">
<path d="M105.83 14V11.4683H105.046V10.908H107.245V11.4683H106.473V14H105.83ZM107.564 14V10.908H108.186L109.344 12.4436H109.054L110.179 10.908H110.801V14H110.158V11.6177L110.415 11.6758L109.224 13.2114H109.141L107.991 11.6758L108.207 11.6177V14H107.564Z" fill="white"/>
<path d="M43.5863 28.1301C44.6222 28.1301 45.5386 27.9408 46.3355 27.5623C47.1324 27.1639 47.74 26.5662 48.1583 25.7693V27.7715H52.3419V11.4555H47.8595V20.9881C47.8595 21.9244 47.5806 22.6815 47.0228 23.2592C46.465 23.817 45.7478 24.0959 44.8713 24.0959C43.9947 24.0959 43.2775 23.817 42.7197 23.2592C42.1619 22.6815 41.883 21.9244 41.883 20.9881V11.4555H37.4006V21.3467C37.4006 23.3787 37.9285 25.0223 38.9844 26.2773C40.0601 27.5125 41.5941 28.1301 43.5863 28.1301Z" fill="white"/>
<path d="M55.6181 9.99127H60.1005V5.50886H55.6181V9.99127ZM55.6181 27.7715H60.1005V11.4555H55.6181V27.7715Z" fill="white"/>
<path d="M65.3528 27.7715H69.8352V15.3403H73.3315V11.4555H69.8352V11.2165C69.8352 9.76217 70.6819 9.03502 72.3752 9.03502C72.6542 9.03502 72.9829 9.0649 73.3614 9.12467V5.29968C72.9032 5.20007 72.3752 5.15027 71.7776 5.15027C69.7456 5.15027 68.1618 5.6782 67.0262 6.73405C65.9106 7.78991 65.3528 9.28404 65.3528 11.2165V11.4555H62.6036V15.3403H65.3528V27.7715Z" fill="white"/>
<path d="M75.6371 27.7715H80.1195V18.986C80.1195 17.7707 80.4582 16.8344 81.1355 16.177C81.8129 15.4996 82.6994 15.161 83.7951 15.161H85.1996V11.2762H84.2433C83.2473 11.2762 82.3607 11.4655 81.5838 11.844C80.8268 12.2026 80.2391 12.8899 79.8207 13.9059V11.4555H75.6371V27.7715Z" fill="white"/>
<path d="M89.7042 34.4054C92.6924 34.4054 94.854 32.7021 96.1887 29.2955L103.181 11.4555H98.3702L94.5153 21.9443L90.6604 11.4555H85.8493L92.2741 27.7715L91.9753 28.4588C91.7362 28.9967 91.4274 29.4748 91.0489 29.8932C90.6704 30.3115 90.0428 30.5207 89.1663 30.5207C88.4491 30.5207 87.7718 30.4211 87.1343 30.2219V33.8974C87.4729 34.0767 87.8614 34.2062 88.2997 34.2859C88.7579 34.3656 89.2261 34.4054 89.7042 34.4054Z" fill="white"/>
<path d="M23.3829 10.8852C23.1564 10.6651 22.8387 10.5651 22.5277 10.6163C22.2162 10.6672 21.9472 10.8628 21.8027 11.1434C21.3057 12.1089 20.6745 12.9961 19.9318 13.7805C20.0058 13.2139 20.0431 12.6439 20.0431 12.0724C20.0431 10.9759 19.8961 9.84742 19.6061 8.71805C18.6527 5.00853 16.1525 1.87144 12.7468 0.111205C12.4503 -0.0419942 12.097 -0.0366153 11.8053 0.125549C11.5136 0.287779 11.3226 0.585213 11.2964 0.917908C11.0309 4.28895 9.2945 7.35586 6.52981 9.33424C6.49322 9.3606 6.4569 9.38729 6.42057 9.41386C6.34534 9.46891 6.27441 9.52097 6.20814 9.56467C6.19778 9.57157 6.18749 9.57861 6.17739 9.58585C4.43861 10.8308 3.00391 12.4903 2.0282 14.3854C1.03675 16.3131 0.534058 18.3818 0.534058 20.5336C0.534058 21.6299 0.681015 22.7583 0.970878 23.8879C2.50055 29.8417 7.85847 33.9999 14.0004 33.9999C21.4253 33.9999 27.4659 27.9589 27.4659 20.5336C27.4659 16.872 26.0159 13.4454 23.3829 10.8852Z" fill="#FF5555"/>
</svg>
